<svg width="14" height="12" viewBox="0 0 14 12" fill="none" xmlns="http://www.w3.org/2000/svg">
  <path fill-rule="evenodd" clip-rule="evenodd"
    d="M9.97873 7.97632C10.1234 7.68844 10.474 7.5723 10.7618 7.71691C11.7153 8.19586 12.5212 8.95835 13.1045 9.89794C13.1928 10.0403 13.3215 10.2304 13.3614 10.488C13.4042 10.7638 13.3293 11.0275 13.2177 11.228C13.1062 11.4286 12.9216 11.6313 12.6647 11.7404C12.4205 11.8442 12.1549 11.8333 11.9583 11.8333C11.6362 11.8333 11.375 11.5722 11.375 11.25C11.375 10.9278 11.6362 10.6667 11.9583 10.6667C12.0838 10.6667 12.1499 10.6663 12.197 10.6631L12.1982 10.6609C12.2094 10.6409 12.1246 10.5315 12.1133 10.5133C11.6336 9.74057 10.9833 9.13375 10.2381 8.75943C9.95026 8.61481 9.83412 8.2642 9.97873 7.97632Z"
    fill="white" fill-opacity="0.5" />
  <path fill-rule="evenodd" clip-rule="evenodd"
    d="M8.81094 0.763247C8.95432 0.474743 9.30442 0.357092 9.59293 0.500466C10.6479 1.02475 11.375 2.11443 11.375 3.37499C11.375 4.63555 10.6479 5.72523 9.59293 6.24951C9.30442 6.39289 8.95432 6.27524 8.81094 5.98673C8.66757 5.69823 8.78522 5.34812 9.07372 5.20475C9.7474 4.86996 10.2083 4.17577 10.2083 3.37499C10.2083 2.57421 9.7474 1.88002 9.07372 1.54523C8.78522 1.40186 8.66757 1.05175 8.81094 0.763247Z"
    fill="white" fill-opacity="0.5" />
  <path fill-rule="evenodd" clip-rule="evenodd"
    d="M2.33333 3.37499C2.33333 1.60308 3.76975 0.166656 5.54166 0.166656C7.31357 0.166656 8.74999 1.60308 8.74999 3.37499C8.74999 5.1469 7.31357 6.58332 5.54166 6.58332C3.76975 6.58332 2.33333 5.1469 2.33333 3.37499Z"
    fill="white" fill-opacity="0.5" />
  <path fill-rule="evenodd" clip-rule="evenodd"
    d="M5.54166 7.16666C7.40613 7.16666 9.07288 8.21908 10.09 9.74506C10.1796 9.8795 10.2751 10.0229 10.342 10.1591C10.4224 10.3231 10.4801 10.5115 10.4666 10.7366C10.4558 10.916 10.3963 11.0825 10.3255 11.2147C10.2547 11.3469 10.1492 11.4887 10.0058 11.5972C9.81367 11.7425 9.60665 11.7934 9.42366 11.8147C9.26252 11.8334 9.07169 11.8334 8.87945 11.8333C6.65512 11.8329 4.42906 11.8329 2.20387 11.8333C2.01163 11.8334 1.8208 11.8334 1.65966 11.8147C1.47667 11.7934 1.26965 11.7425 1.07755 11.5972C0.934148 11.4887 0.828579 11.3469 0.757795 11.2147C0.687012 11.0825 0.627482 10.916 0.61671 10.7366C0.603203 10.5115 0.660953 10.3231 0.741364 10.1591C0.808172 10.0229 0.903727 9.8795 0.993335 9.74506C2.01043 8.21908 3.67719 7.16666 5.54166 7.16666Z"
    fill="white" fill-opacity="0.5" />
</svg>
  